<?xml version="1.0" encoding="UTF-8"?>
<svg xmlns="http://www.w3.org/2000/svg" viewBox="0 0 8723 1235" role="img" aria-label="Columnar Cookbook">
  <polyline points="162.55 1072.05 647.95 1072.05 747.95 972.05 162.55 972.05" style="fill: #797979;"/>
  <polyline points="324.35 910.25 809.75 910.25 909.75 810.25 324.35 810.25" style="fill: #797979;"/>
  <polyline points="486.15 748.45 971.55 748.45 1071.55 648.45 486.15 648.45" style="fill: #797979;"/>
  <polyline points="747.95 486.65 747.95 972.05 647.95 1072.05 647.95 486.65" style="fill: #fff;"/>
  <polyline points="909.75 324.85 909.75 810.25 809.75 910.25 809.75 324.85" style="fill: #fff;"/>
  <polyline points="1071.55 163.05 1071.55 648.45 971.55 748.45 971.55 163.05" style="fill: #fff;"/>
  <g>
    <path d="M1687.37,481.33c-15.5-21.02-35.69-36.38-60.59-46.06-24.9-9.67-49.26-14.53-73.04-14.53-30.44,0-58.1,5.54-83,16.6-24.9,11.08-46.35,26.29-64.33,45.65-17.99,19.38-31.83,42.06-41.5,68.06-9.69,26.01-14.53,54.24-14.53,84.66,0,32.1,4.7,61.42,14.11,87.98,9.4,26.56,22.83,49.38,40.25,68.47s38.31,33.9,62.67,44.4c24.34,10.52,51.73,15.77,82.17,15.77s59.47-6.23,83.83-18.68c24.34-12.45,43.99-28.91,58.93-49.38l83.83,58.93c-26.01,32.66-57.83,57.97-95.45,75.95-37.64,17.97-81.63,26.97-131.97,26.97-45.94,0-88.12-7.61-126.58-22.82-38.46-15.21-71.52-36.52-99.18-63.91-27.68-27.39-49.25-60.03-64.74-97.94-15.5-37.89-23.24-79.81-23.24-125.74s8.16-89.5,24.49-127.4c16.31-37.89,38.72-70.14,67.23-96.7,28.49-26.56,62.11-47.02,100.84-61.42,38.72-14.38,80.78-21.58,126.16-21.58,18.8,0,38.45,1.8,58.93,5.4,20.46,3.61,40.11,9.13,58.93,16.6,18.8,7.47,36.52,16.74,53.12,27.81,16.6,11.08,30.71,24.35,42.33,39.84l-79.68,63.08Z" style="fill: #fff;"/>
    <path d="M1800.25,730.33c0-31.54,5.67-60.17,17.02-85.9,11.33-25.73,26.69-47.73,46.06-65.98,19.36-18.26,42.33-32.37,68.89-42.33,26.56-9.96,54.78-14.94,84.66-14.94s58.1,4.98,84.66,14.94c26.56,9.96,49.51,24.07,68.89,42.33,19.36,18.26,34.72,40.25,46.06,65.98,11.33,25.73,17.02,54.37,17.02,85.9s-5.68,60.32-17.02,86.32c-11.35,26.02-26.7,48.28-46.06,66.82-19.38,18.54-42.33,33.07-68.89,43.57-26.56,10.5-54.78,15.77-84.66,15.77s-58.1-5.27-84.66-15.77c-26.56-10.5-49.53-25.03-68.89-43.57-19.38-18.53-34.73-40.8-46.06-66.82-11.35-26-17.02-54.78-17.02-86.32ZM1901.51,730.33c0,15.5,2.35,31,7.05,46.48,4.69,15.5,11.75,29.34,21.17,41.5,9.4,12.18,21.29,22.14,35.69,29.88,14.38,7.75,31.54,11.62,51.46,11.62s37.06-3.87,51.46-11.62c14.38-7.74,26.27-17.7,35.69-29.88,9.4-12.16,16.46-26,21.17-41.5,4.7-15.48,7.05-30.98,7.05-46.48s-2.36-30.84-7.05-46.06c-4.71-15.21-11.76-28.91-21.17-41.08-9.42-12.17-21.31-22-35.69-29.47-14.4-7.47-31.54-11.21-51.46-11.21s-37.08,3.73-51.46,11.21c-14.4,7.47-26.29,17.3-35.69,29.47-9.42,12.18-16.47,25.87-21.17,41.08-4.71,15.23-7.05,30.58-7.05,46.06Z" style="fill: #fff;"/>
    <path d="M2289.94,303.71h99.6v627.48h-99.6V303.71Z" style="fill: #fff;"/>
    <path d="M2832.75,931.19h-94.62v-63.91h-1.66c-8.86,19.92-24.21,37.49-46.06,52.71-21.87,15.21-47.72,22.82-77.61,22.82-26.01,0-48.28-4.56-66.81-13.7-18.55-9.13-33.76-21.16-45.65-36.1-11.91-14.94-20.62-32.09-26.14-51.46-5.54-19.36-8.3-39.28-8.3-59.76v-249h99.6v220.78c0,11.62.83,23.8,2.49,36.52,1.66,12.73,5.25,24.21,10.79,34.44,5.52,10.25,13.14,18.68,22.82,25.32,9.67,6.64,22.54,9.96,38.6,9.96s29.18-3.18,41.08-9.54c11.89-6.35,21.58-14.53,29.05-24.48,7.47-9.96,13.14-21.44,17.01-34.45,3.87-12.99,5.81-26.14,5.81-39.43v-219.12h99.6v398.4Z" style="fill: #fff;"/>
    <path d="M3386.35,521.17c26,0,48.27,4.56,66.82,13.69,18.53,9.13,33.75,21.17,45.65,36.11,11.89,14.94,20.61,32.1,26.14,51.46,5.52,19.38,8.3,39.29,8.3,59.76v249h-99.6v-220.78c0-11.62-.83-23.78-2.49-36.52-1.66-12.72-5.27-24.2-10.79-34.45-5.54-10.23-13.15-18.67-22.83-25.31-9.69-6.64-22.55-9.96-38.59-9.96s-28.78,3.32-39.84,9.96c-11.08,6.64-20.21,15.22-27.39,25.73-7.2,10.52-12.45,22.28-15.77,35.28-3.32,13.01-4.98,25.87-4.98,38.59v217.46h-99.6v-240.7c0-24.9-5.95-45.51-17.84-61.83-11.91-16.31-30.58-24.48-56.03-24.48-14.94,0-27.95,3.19-39.01,9.54-11.08,6.37-20.06,14.52-26.97,24.48-6.93,9.96-12.18,21.45-15.77,34.45-3.61,13.01-5.39,26.14-5.39,39.42v219.12h-99.6v-398.4h94.62v63.91h1.66c4.42-9.96,10.38-19.36,17.84-28.22,7.47-8.84,16.31-16.87,26.56-24.07,10.23-7.18,22-12.86,35.27-17.01,13.28-4.15,27.93-6.22,43.99-6.22,30.98,0,56.71,6.92,77.19,20.75,20.46,13.84,36.23,32.1,47.31,54.78,13.28-24.34,30.98-43.02,53.12-56.02,22.12-13,48.14-19.5,78.02-19.5Z" style="fill: #fff;"/>
    <path d="M3607.96,532.79h94.62v63.91h1.66c8.84-19.92,24.2-37.48,46.07-52.71,21.85-15.21,47.72-22.82,77.6-22.82,26,0,48.27,4.56,66.82,13.69,18.53,9.13,33.74,21.17,45.65,36.11,11.89,14.94,20.61,32.1,26.15,51.46,5.52,19.38,8.3,39.29,8.3,59.76v249h-99.6v-220.78c0-11.62-.83-23.78-2.49-36.52-1.66-12.72-5.27-24.2-10.79-34.45-5.54-10.23-13.15-18.67-22.83-25.31-9.69-6.64-22.55-9.96-38.59-9.96s-29.88,3.19-41.5,9.54c-11.62,6.37-21.17,14.52-28.64,24.48-7.47,9.96-13.15,21.45-17.01,34.45-3.88,13.01-5.81,26.14-5.81,39.42v219.12h-99.6v-398.4Z" style="fill: #fff;"/>
    <path d="M4296.84,880.56h-2.49c-9.96,17.71-26.02,32.24-48.14,43.58-22.14,11.33-47.31,17.01-75.53,17.01-16.06,0-32.79-2.07-50.22-6.22-17.43-4.15-33.49-11.06-48.14-20.75-14.67-9.67-26.85-22.41-36.52-38.18-9.69-15.77-14.53-35.28-14.53-58.52,0-29.88,8.43-53.66,25.32-71.38,16.87-17.7,38.59-31.26,65.15-40.67,26.56-9.4,56.03-15.63,88.4-18.68,32.37-3.04,64.04-4.56,95.04-4.56v-9.96c0-24.9-9-43.29-26.98-55.19-17.99-11.89-39.42-17.84-64.33-17.84-21.04,0-41.23,4.44-60.59,13.28-19.38,8.86-35.42,19.65-48.14,32.37l-51.46-60.59c22.68-21.02,48.83-36.79,78.43-47.31,29.59-10.5,59.62-15.77,90.06-15.77,35.4,0,64.6,4.98,87.56,14.94,22.96,9.96,41.08,22.97,54.37,39.01,13.28,16.06,22.54,34.03,27.8,53.95,5.25,19.92,7.88,39.84,7.88,59.76v242.36h-92.96v-50.63ZM4295.18,749.42h-22.41c-16.06,0-32.93.7-50.63,2.07-17.72,1.39-34.03,4.44-48.97,9.13-14.94,4.71-27.39,11.35-37.35,19.92-9.96,8.58-14.94,20.33-14.94,35.27,0,9.42,2.08,17.3,6.23,23.66,4.15,6.37,9.54,11.49,16.18,15.35,6.64,3.88,14.11,6.64,22.41,8.3s16.6,2.49,24.9,2.49c34.3,0,60.3-9.13,78.02-27.39,17.7-18.26,26.56-43.16,26.56-74.7v-14.11Z" style="fill: #fff;"/>
    <path d="M4464.49,532.79h95.45v66.4h1.66c11.06-23.24,26.56-42.04,46.48-56.44,19.92-14.38,43.16-21.58,69.72-21.58,3.86,0,8.01.14,12.45.41,4.42.29,8.3.97,11.62,2.08v91.3c-6.64-1.66-12.32-2.76-17.01-3.32-4.71-.54-9.27-.83-13.7-.83-22.7,0-40.96,4.15-54.78,12.45-13.84,8.3-24.63,18.26-32.37,29.88-7.76,11.62-13.01,23.53-15.77,35.69-2.78,12.18-4.15,21.87-4.15,29.05v213.31h-99.6v-398.4Z" style="fill: #fff;"/>
    <path d="M5445.55,835.74c-9.96,14.94-22,29.06-36.11,42.37-14.11,13.31-30.44,25.03-48.97,35.15-18.54,10.12-39.01,18.12-61.42,24.03-22.41,5.89-46.9,8.84-73.46,8.84-44.28,0-85.22-7.76-122.84-23.24-37.64-15.48-70.01-36.94-97.11-64.32-27.12-27.39-48.28-59.89-63.5-97.53-15.22-37.62-22.82-78.85-22.82-123.67s7.74-86.03,23.24-123.67c15.49-37.62,36.94-70.13,64.33-97.52,27.39-27.39,59.76-48.83,97.11-64.32,37.35-15.48,77.88-23.24,121.59-23.24,21.58,0,42.75,2.26,63.5,6.74,20.75,4.5,40.25,10.83,58.51,18.97,18.26,8.16,34.86,17.95,49.8,29.36,14.94,11.43,27.39,24.33,37.35,38.71l-49.8,36.52c-6.1-9.4-14.25-18.8-24.49-28.22-10.25-9.4-22.28-17.7-36.11-24.9-13.84-7.18-28.92-12.99-45.23-17.43-16.33-4.42-33.9-6.64-52.71-6.64-38.18,0-72.35,6.9-102.5,20.69-30.17,13.8-55.75,32.41-76.78,55.84-21.04,23.45-37.08,50.6-48.14,81.5-11.08,30.89-16.6,63.43-16.6,97.62s5.67,66.74,17.02,97.63c11.33,30.89,27.52,58.05,48.55,81.48,21.02,23.45,46.61,42.06,76.78,55.84,30.15,13.8,64.04,20.69,101.67,20.69,33.74,0,65.84-6.91,96.28-20.75,30.42-13.83,55.88-35.96,76.36-66.4l46.48,29.88Z" style="fill: #fff;"/>
    <path d="M5889.59,736.97c0,29.34-5.12,56.44-15.36,81.34-10.25,24.9-24.49,46.48-42.75,64.74s-40.12,32.51-65.57,42.75c-25.46,10.23-53.41,15.35-83.83,15.35s-57.56-5.12-83-15.35c-25.46-10.23-47.31-24.49-65.57-42.75s-32.51-39.84-42.75-64.74c-10.25-24.9-15.35-52-15.35-81.34s5.11-56.44,15.35-81.34c10.23-24.9,24.49-46.48,42.75-64.74s40.11-32.5,65.57-42.75c25.44-10.23,53.12-15.36,83-15.36s58.37,5.12,83.83,15.36c25.44,10.25,47.31,24.49,65.57,42.75s32.5,39.84,42.75,64.74c10.23,24.9,15.36,52.02,15.36,81.34ZM5829.83,736.97c0-21.58-3.46-41.91-10.38-61-6.92-19.09-16.74-35.69-29.46-49.8-12.74-14.11-28.22-25.31-46.48-33.61-18.26-8.3-38.74-12.45-61.42-12.45s-43.03,4.15-61.01,12.45c-17.99,8.3-33.34,19.5-46.06,33.61-12.74,14.11-22.55,30.71-29.46,49.8-6.93,19.09-10.38,39.42-10.38,61s3.45,41.92,10.38,61.01c6.91,19.09,16.73,35.69,29.46,49.8,12.72,14.11,28.08,25.19,46.06,33.2,17.98,8.03,38.31,12.04,61.01,12.04s43.16-4.01,61.42-12.04c18.26-8.02,33.74-19.09,46.48-33.2,12.72-14.11,22.54-30.71,29.46-49.8,6.91-19.09,10.38-39.43,10.38-61.01Z" style="fill: #fff;"/>
    <path d="M6355.22,736.97c0,29.34-5.12,56.44-15.36,81.34-10.25,24.9-24.49,46.48-42.75,64.74s-40.12,32.51-65.57,42.75c-25.46,10.23-53.41,15.35-83.83,15.35s-57.56-5.12-83-15.35c-25.46-10.23-47.31-24.49-65.57-42.75s-32.51-39.84-42.75-64.74c-10.25-24.9-15.35-52-15.35-81.34s5.11-56.44,15.35-81.34c10.23-24.9,24.49-46.48,42.75-64.74s40.11-32.5,65.57-42.75c25.44-10.23,53.12-15.36,83-15.36s58.37,5.12,83.83,15.36c25.44,10.25,47.31,24.49,65.57,42.75s32.5,39.84,42.75,64.74c10.23,24.9,15.36,52.02,15.36,81.34ZM6295.46,736.97c0-21.58-3.46-41.91-10.38-61-6.92-19.09-16.74-35.69-29.46-49.8-12.74-14.11-28.22-25.31-46.48-33.61-18.26-8.3-38.74-12.45-61.42-12.45s-43.03,4.15-61.01,12.45c-17.99,8.3-33.34,19.5-46.06,33.61-12.74,14.11-22.55,30.71-29.46,49.8-6.93,19.09-10.38,39.42-10.38,61s3.45,41.92,10.38,61.01c6.91,19.09,16.73,35.69,29.46,49.8,12.72,14.11,28.08,25.19,46.06,33.2,17.98,8.03,38.31,12.04,61.01,12.04s43.16-4.01,61.42-12.04c18.26-8.02,33.74-19.09,46.48-33.2,12.72-14.11,22.54-30.71,29.46-49.8,6.91-19.09,10.38-39.43,10.38-61.01Z" style="fill: #fff;"/>
    <path d="M6492.99,717.88h2.49l179.28-175.13h81.34l-195.88,177.62,215.8,210.82h-83l-197.54-204.18h-2.49v204.18h-56.44V303.71h56.44v414.17Z" style="fill: #fff;"/>
    <path d="M6874.78,865.62v65.57h-56.44V303.71h56.44v306.27h1.66c16.6-25.44,38.18-44.68,64.74-57.68,26.56-13,53.95-19.51,82.17-19.51,30.42,0,57.96,5.27,82.58,15.77,24.61,10.52,45.65,24.9,63.08,43.16,17.43,18.26,30.98,39.84,40.67,64.74,9.67,24.9,14.53,51.75,14.53,80.51s-4.85,55.61-14.53,80.51c-9.69,24.9-23.24,46.48-40.67,64.74s-38.47,32.66-63.08,43.16c-24.63,10.5-52.16,15.77-82.58,15.77-28.22,0-55.61-6.37-82.17-19.09-26.56-12.72-48.14-31.54-64.74-56.44h-1.66ZM7164.45,736.97c0-21.58-3.32-41.91-9.96-61-6.64-19.09-16.18-35.69-28.63-49.8-12.45-14.11-27.8-25.31-46.07-33.61-18.26-8.3-39.01-12.45-62.25-12.45-21.58,0-41.5,4.02-59.76,12.04-18.26,8.03-34.03,19.09-47.31,33.2-13.28,14.11-23.66,30.71-31.12,49.8-7.47,19.09-11.21,39.71-11.21,61.83s3.73,42.75,11.21,61.84c7.47,19.09,17.84,35.56,31.12,49.38,13.28,13.84,29.05,24.77,47.31,32.79,18.26,8.03,38.18,12.04,59.76,12.04,23.24,0,43.99-4.01,62.25-12.04,18.26-8.02,33.62-19.09,46.07-33.2,12.45-14.11,22-30.71,28.63-49.8,6.64-19.09,9.96-39.43,9.96-61.01Z" style="fill: #fff;"/>
    <path d="M7689.84,736.97c0,29.34-5.12,56.44-15.36,81.34-10.25,24.9-24.49,46.48-42.75,64.74s-40.12,32.51-65.57,42.75c-25.46,10.23-53.41,15.35-83.83,15.35s-57.56-5.12-83-15.35c-25.46-10.23-47.31-24.49-65.57-42.75s-32.51-39.84-42.75-64.74c-10.25-24.9-15.35-52-15.35-81.34s5.11-56.44,15.35-81.34c10.23-24.9,24.49-46.48,42.75-64.74s40.11-32.5,65.57-42.75c25.44-10.23,53.12-15.36,83-15.36s58.37,5.12,83.83,15.36c25.44,10.25,47.31,24.49,65.57,42.75s32.5,39.84,42.75,64.74c10.23,24.9,15.36,52.02,15.36,81.34ZM7630.08,736.97c0-21.58-3.46-41.91-10.38-61-6.92-19.09-16.74-35.69-29.46-49.8-12.74-14.11-28.22-25.31-46.48-33.61-18.26-8.3-38.74-12.45-61.42-12.45s-43.03,4.15-61.01,12.45c-17.99,8.3-33.34,19.5-46.06,33.61-12.74,14.11-22.55,30.71-29.46,49.8-6.93,19.09-10.38,39.42-10.38,61s3.45,41.92,10.38,61.01c6.91,19.09,16.73,35.69,29.46,49.8,12.72,14.11,28.08,25.19,46.06,33.2,17.98,8.03,38.31,12.04,61.01,12.04s43.16-4.01,61.42-12.04c18.26-8.02,33.74-19.09,46.48-33.2,12.72-14.11,22.54-30.71,29.46-49.8,6.91-19.09,10.38-39.43,10.38-61.01Z" style="fill: #fff;"/>
    <path d="M8155.46,736.97c0,29.34-5.12,56.44-15.36,81.34-10.25,24.9-24.49,46.48-42.75,64.74s-40.12,32.51-65.57,42.75c-25.46,10.23-53.41,15.35-83.83,15.35s-57.56-5.12-83-15.35c-25.46-10.23-47.31-24.49-65.57-42.75s-32.51-39.84-42.75-64.74c-10.25-24.9-15.35-52-15.35-81.34s5.11-56.44,15.35-81.34c10.23-24.9,24.49-46.48,42.75-64.74s40.11-32.5,65.57-42.75c25.44-10.23,53.12-15.36,83-15.36s58.37,5.12,83.83,15.36c25.44,10.25,47.31,24.49,65.57,42.75s32.5,39.84,42.75,64.74c10.23,24.9,15.36,52.02,15.36,81.34ZM8095.7,736.97c0-21.58-3.46-41.91-10.38-61-6.92-19.09-16.74-35.69-29.46-49.8-12.74-14.11-28.22-25.31-46.48-33.61-18.26-8.3-38.74-12.45-61.42-12.45s-43.03,4.15-61.01,12.45c-17.99,8.3-33.34,19.5-46.06,33.61-12.74,14.11-22.55,30.71-29.46,49.8-6.93,19.09-10.38,39.42-10.38,61s3.45,41.92,10.38,61.01c6.91,19.09,16.73,35.69,29.46,49.8,12.72,14.11,28.08,25.19,46.06,33.2,17.98,8.03,38.31,12.04,61.01,12.04s43.16-4.01,61.42-12.04c18.26-8.02,33.74-19.09,46.48-33.2,12.72-14.11,22.54-30.71,29.46-49.8,6.91-19.09,10.38-39.43,10.38-61.01Z" style="fill: #fff;"/>
    <path d="M8293.24,717.88h2.49l179.28-175.13h81.34l-195.88,177.62,215.8,210.82h-83l-197.54-204.18h-2.49v204.18h-56.44V303.71h56.44v414.17Z" style="fill: #fff;"/>
  </g>
</svg>