<svg role="img" viewBox="0 0 24 24" xmlns="http://www.w3.org/2000/svg">
  <path d="M12 0c6.627 0 12 5.373 12 12s-5.373 12-12 12S0 18.627 0 12 5.373 0 12 0m-1.514 6.068c-3.272 0-5.918 2.673-5.918 5.946a5.93 5.93 0 0 0 5.618 5.918h.546a5.89 5.89 0 0 0 5.154-3.464h.791a2.764 2.764 0 0 0 2.755-2.754c0-1.528-1.255-2.728-2.755-2.728h-1.09a5.88 5.88 0 0 0-5.1-2.918m0 1.8c1.664 0 3.082.982 3.737 2.4l.245.519h2.21c.517 0 .926.436.926.927 0 .49-.436.927-.927.927h-2.072l-.191.627a4.155 4.155 0 0 1-3.928 2.837 4.115 4.115 0 0 1-4.118-4.119 4.13 4.13 0 0 1 4.118-4.118"/>
</svg>
